# Blender v2.79 (sub 0) OBJ File: 'logo_slim.blend'
# www.blender.org
mtllib logo_slim.mtl
o Cube.001
v 2.512500 -2.734286 0.400000
v 2.512500 0.385714 0.400000
v 2.512500 -2.734286 -0.400000
v 2.512500 0.385714 -0.400000
v 5.012500 -2.734286 0.400000
v 5.012500 1.635714 0.400000
v 5.012500 -2.734286 -0.400000
v 5.012500 1.635714 -0.400000
v 0.000000 3.525714 0.400000
v 0.000000 3.525714 -0.400000
v 1.262500 -2.734285 0.400000
v 1.262500 2.285714 0.400000
v 1.262500 -2.734285 -0.400000
v 1.262500 2.285714 -0.400000
v -2.512500 -2.734286 0.400000
v -2.512500 0.385714 0.400000
v -2.512500 -2.734286 -0.400000
v -2.512500 0.385714 -0.400000
v -5.012500 -2.715697 0.400000
v -5.012500 1.654303 0.400000
v -5.012500 -2.715697 -0.400000
v -5.012500 1.654303 -0.400000
v -1.262500 -2.734285 0.400000
v -1.262500 2.285714 0.400000
v -1.262500 -2.734285 -0.400000
v -1.262500 2.285714 -0.400000
v 0.000000 3.525714 0.400000
v 0.000000 3.525714 -0.400000
v 1.262500 2.285714 0.400000
v 1.262500 2.285714 -0.400000
v -1.262500 2.285714 0.400000
v -1.262500 2.285714 -0.400000
vt 0.607176 0.650914
vt 0.607176 0.400111
vt 0.542868 0.400111
vt 0.542868 0.650914
vt 0.619318 0.401982
vt 0.619318 0.647867
vt 0.816340 0.746378
vt 0.816340 0.401982
vt 0.909298 0.407952
vt 0.909298 0.756321
vt 0.845524 0.756321
vt 0.845524 0.407952
vt 0.816340 0.401982
vt 0.816340 0.746378
vt 0.619318 0.647867
vt 0.619318 0.401982
vt 0.775183 0.345132
vt 0.964065 0.345132
vt 0.964065 0.284690
vt 0.775183 0.284690
vt 0.964065 0.345132
vt 0.775183 0.345132
vt 0.775183 0.284690
vt 0.964065 0.284690
vt 0.310400 0.401429
vt 0.310400 0.798059
vt 0.247192 0.798059
vt 0.247192 0.401429
vt 0.603705 0.345132
vt 0.603705 0.284690
vt 0.412933 0.284690
vt 0.412933 0.345132
vt 0.421310 0.895327
vt 0.520806 0.797604
vt 0.520806 0.401982
vt 0.321813 0.401982
vt 0.321813 0.797604
vt 0.542478 0.400112
vt 0.606786 0.400112
vt 0.606786 0.650914
vt 0.542478 0.650914
vt 0.223302 0.401982
vt 0.026279 0.403447
vt 0.026279 0.747843
vt 0.223302 0.647867
vt 0.909218 0.408392
vt 0.845604 0.408392
vt 0.845604 0.755881
vt 0.909218 0.755881
vt 0.026279 0.403447
vt 0.223302 0.401982
vt 0.223302 0.647867
vt 0.026279 0.747843
vt 0.241455 0.345132
vt 0.241455 0.284690
vt 0.052572 0.284690
vt 0.052572 0.345132
vt 0.052572 0.345132
vt 0.052572 0.284690
vt 0.241455 0.284690
vt 0.241455 0.345132
vt 0.310907 0.401259
vt 0.247925 0.401259
vt 0.247925 0.796477
vt 0.310907 0.796477
vt 0.520806 0.401982
vt 0.520806 0.797604
vt 0.421310 0.895327
vt 0.321813 0.797604
vt 0.321813 0.401982
vt 0.545315 0.971435
vt 0.445819 0.971435
vt 0.445819 0.908387
vt 0.545315 0.908387
vt 0.346322 0.971435
vt 0.346322 0.908387
vn -1.0000 0.0000 0.0000
vn 0.0000 0.0000 -1.0000
vn 1.0000 0.0000 0.0000
vn 0.0000 0.0000 1.0000
vn 0.0000 -1.0000 0.0000
vn -0.4472 0.8944 0.0000
vn -0.0074 -1.0000 0.0000
vn 0.4525 0.8918 0.0000
vn 0.7007 0.7134 0.0000
vn -0.7007 0.7134 0.0000
usemtl None
s off
f 1/1/1 2/2/1 4/3/1 3/4/1
f 3/5/2 4/6/2 8/7/2 7/8/2
f 7/9/3 8/10/3 6/11/3 5/12/3
f 5/13/4 6/14/4 2/15/4 1/16/4
f 3/17/5 7/18/5 5/19/5 1/20/5
f 8/21/6 4/22/6 2/23/6 6/24/6
f 13/25/3 14/26/3 12/27/3 11/28/3
f 13/29/5 11/30/5 23/31/5 25/32/5
f 10/33/2 14/34/2 13/35/2 25/36/2 26/37/2
f 15/38/3 17/39/3 18/40/3 16/41/3
f 17/42/2 21/43/2 22/44/2 18/45/2
f 21/46/1 19/47/1 20/48/1 22/49/1
f 19/50/4 15/51/4 16/52/4 20/53/4
f 17/54/7 15/55/7 19/56/7 21/57/7
f 22/58/8 20/59/8 16/60/8 18/61/8
f 25/62/1 23/63/1 24/64/1 26/65/1
f 11/66/4 12/67/4 9/68/4 24/69/4 23/70/4
f 30/71/9 28/72/9 27/73/9 29/74/9
f 32/75/10 31/76/10 27/73/10 28/72/10
